<svg width="34" height="34" viewBox="0 0 34 34" fill="none" xmlns="http://www.w3.org/2000/svg">
<rect width="34" height="34" rx="17" fill="white"/>
<path d="M16.5424 16.9999C17.4083 16.9999 18.2388 16.6745 18.851 16.0954C19.4633 15.5162 19.8073 14.7307 19.8073 13.9117C19.8073 13.0927 19.4633 12.3072 18.851 11.728C18.2388 11.1489 17.4083 10.8235 16.5424 10.8235C15.6765 10.8235 14.8461 11.1489 14.2338 11.728C13.6216 12.3072 13.2776 13.0927 13.2776 13.9117C13.2776 14.7307 13.6216 15.5162 14.2338 16.0954C14.8461 16.6745 15.6765 16.9999 16.5424 16.9999Z" stroke="#161616" stroke-width="1.4" stroke-linecap="round" stroke-linejoin="round"/>
<path d="M10.9333 23.1764C10.9333 20.7861 13.4473 18.8529 16.5424 18.8529C17.2215 18.8529 17.8744 18.9456 18.4817 19.1185" stroke="#161616" stroke-width="1.4" stroke-linecap="round" stroke-linejoin="round"/>
<path d="M23.0666 21.1177L18.3999 21.1176M20.7332 19.0588V23.1765" stroke="#161616" stroke-width="1.4" stroke-linecap="round" stroke-linejoin="round"/>
</svg>
