<svg width="34" height="34" viewBox="0 0 34 34" fill="none" xmlns="http://www.w3.org/2000/svg">
<rect width="34" height="34" rx="17" fill="#161616"/>
<path d="M16.5427 16.9996C17.4086 16.9996 18.239 16.6742 18.8513 16.0951C19.4636 15.5159 19.8075 14.7304 19.8075 13.9114C19.8075 13.0924 19.4636 12.3069 18.8513 11.7277C18.239 11.1486 17.4086 10.8232 16.5427 10.8232C15.6768 10.8232 14.8464 11.1486 14.2341 11.7277C13.6218 12.3069 13.2778 13.0924 13.2778 13.9114C13.2778 14.7304 13.6218 15.5159 14.2341 16.0951C14.8464 16.6742 15.6768 16.9996 16.5427 16.9996Z" stroke="white" stroke-width="1.4" stroke-linecap="round" stroke-linejoin="round"/>
<path d="M10.9331 23.176C10.9331 20.7857 13.447 18.8525 16.5421 18.8525C17.2212 18.8525 17.8742 18.9452 18.4814 19.1181" stroke="white" stroke-width="1.4" stroke-linecap="round" stroke-linejoin="round"/>
<path d="M23.0666 21.1174L18.3999 21.1174M20.7332 19.0586V23.1762" stroke="white" stroke-width="1.4" stroke-linecap="round" stroke-linejoin="round"/>
</svg>
