<?xml version="1.0" encoding="UTF-8"?>
<svg width="73px" height="72px" viewBox="0 0 73 72" version="1.1" xmlns="http://www.w3.org/2000/svg" xmlns:xlink="http://www.w3.org/1999/xlink">
    <title>donatty_mark_white</title>
    <g id="styleguide" stroke="none" stroke-width="1" fill="none" fill-rule="evenodd">
        <g id="Brandbook" transform="translate(-587.000000, -330.000000)">
            <g id="donatty_mark_white" transform="translate(587.000000, 330.000000)">
                <rect id="Rectangle" fill="#FFFFFF" x="0" y="0" width="73" height="72"></rect>
                <g id="logo_mark" transform="translate(24.000000, 16.000000)" fill="#131315">
                    <path d="M10.0766403,15 L9.44858903,12.9588334 C8.29279963,9.20251787 10.4009426,5.22047003 14.1572582,4.06468062 C14.5220274,3.95244393 14.8947226,3.86989034 15.2717002,3.81756769 C16.8475537,1.51266191 19.4971263,0 22.5,0 L25,0 L25,27.5 C25,34.4035594 19.4035594,40 12.5,40 C5.59644063,40 0,34.4035594 0,27.5 L0,18.75 L3.19444444,18.75 C3.41045403,18.75 3.62421943,18.7590917 3.83546161,18.776927 C3.77912351,18.3593971 3.75,17.932961 3.75,17.5 L3.75,15 L10.0766403,15 Z M22.5,27.5 L22.5,2.5 C19.0482203,2.5 16.25,5.29822031 16.25,8.75 L16.25,18.2268963 C15.0919607,17.7581339 13.8261256,17.5 12.5,17.5 L6.25,17.5 C6.25,20.9517797 8.73730695,23.75 11.8055556,23.75 L12.5,23.75 C14.5710678,23.75 16.25,25.4289322 16.25,27.5 C16.25,29.5710678 14.5710678,31.25 12.5,31.25 C10.4289322,31.25 8.75,29.5710678 8.75,27.5 C8.75,24.0482203 6.26269305,21.25 3.19444444,21.25 L2.5,21.25 L2.5,27.5 C2.5,33.0228475 6.9771525,37.5 12.5,37.5 C18.0228475,37.5 22.5,33.0228475 22.5,27.5 Z M12.8853265,15.0058259 C13.1761585,15.0146318 13.4644923,15.0333721 13.75,15.0617191 L13.75,8.75 C13.75,8.10107051 13.820642,7.46864033 13.9546554,6.85997999 C12.1211069,7.90828077 11.1909208,10.1204926 11.8380366,12.2236188 L12.8853265,15.0058259 L12.8853265,15.0058259 Z M11.25,27.5 C11.25,28.1903559 11.8096441,28.75 12.5,28.75 C13.1903559,28.75 13.75,28.1903559 13.75,27.5 C13.75,26.8096441 13.1903559,26.25 12.5,26.25 L11.8055556,26.25 C11.589546,26.25 11.3757806,26.2409083 11.1645384,26.223073 C11.2208765,26.6406029 11.25,27.067039 11.25,27.5 Z" id="Shape"></path>
                </g>
            </g>
        </g>
    </g>
</svg>