<svg width="34" height="34" viewBox="0 0 34 34" fill="none" xmlns="http://www.w3.org/2000/svg">
<rect x="0.000488281" width="34" height="34" rx="17" fill="white"/>
<path d="M14.3004 16.2222H20.6004M16.1004 13.1111H20.6004M14.3004 19.3333H20.6004M10.7004 24V13.7333C10.7004 12.4265 10.7004 11.7731 10.9947 11.274C11.2536 10.835 11.6666 10.478 12.1747 10.2543C12.7522 10 13.5083 10 15.0204 10H18.9804C20.4926 10 21.2487 10 21.8262 10.2543C22.3343 10.478 22.7473 10.835 23.0062 11.274C23.3004 11.7731 23.3004 12.4265 23.3004 13.7333V24L21.3317 22.4444L18.9692 24L17.0004 22.4444L15.0317 24L12.6692 22.4444L10.7004 24Z" stroke="#161616" stroke-width="1.4" stroke-linecap="round" stroke-linejoin="round"/>
</svg>
