<svg width="34" height="34" viewBox="0 0 34 34" fill="none" xmlns="http://www.w3.org/2000/svg">
<rect x="0.000488281" width="34" height="34" rx="17" fill="white"/>
<path d="M14.9004 21.2002V23.3002M19.1004 21.2002V23.3002M13.5004 23.3002H20.5004M10.7004 17.0002H23.3004M17.0004 19.1002H17.0074M14.0604 21.2002H19.9404C21.1165 21.2002 21.7046 21.2002 22.1538 20.9713C22.549 20.77 22.8702 20.4487 23.0716 20.0536C23.3004 19.6044 23.3004 19.0163 23.3004 17.8402V14.0602C23.3004 12.8841 23.3004 12.296 23.0716 11.8468C22.8702 11.4517 22.549 11.1304 22.1538 10.9291C21.7046 10.7002 21.1165 10.7002 19.9404 10.7002H14.0604C12.8843 10.7002 12.2963 10.7002 11.8471 10.9291C11.4519 11.1304 11.1307 11.4517 10.9293 11.8468C10.7004 12.296 10.7004 12.8841 10.7004 14.0602V17.8402C10.7004 19.0163 10.7004 19.6044 10.9293 20.0536C11.1307 20.4487 11.4519 20.77 11.8471 20.9713C12.2963 21.2002 12.8843 21.2002 14.0604 21.2002Z" stroke="#161616" stroke-width="1.4" stroke-linecap="round" stroke-linejoin="round"/>
</svg>
