<svg width="34" height="34" viewBox="0 0 34 34" fill="none" xmlns="http://www.w3.org/2000/svg">
<rect x="-0.000732422" width="34" height="34" rx="17" fill="white"/>
<path d="M19.3326 13.8889L16.2215 17M16.2215 17L19.3326 20.1111M16.2215 17H23.9993M16.9993 10L13.7326 10C12.4258 10 11.7724 10 11.2733 10.2543C10.8342 10.478 10.4773 10.835 10.2536 11.274C9.99927 11.7731 9.99927 12.4265 9.99927 13.7333L9.99927 20.2667C9.99927 21.5735 9.99927 22.2269 10.2536 22.726C10.4773 23.165 10.8342 23.522 11.2733 23.7457C11.7724 24 12.4258 24 13.7326 24H16.9993" stroke="#161616" stroke-width="2" stroke-linecap="round" stroke-linejoin="round"/>
</svg>
