<svg width="34" height="34" viewBox="0 0 34 34" fill="none" xmlns="http://www.w3.org/2000/svg">
<rect x="0.000488281" width="34" height="34" rx="17" fill="white"/>
<path d="M14.6672 20.8772H19.3338M10.0005 19.0035V17.0753C10.0005 16.1785 10.0005 15.7301 10.1156 15.3171C10.2176 14.9513 10.3853 14.6073 10.6103 14.3019C10.8643 13.9571 11.217 13.6819 11.9222 13.1313L13.9444 11.5525C15.0374 10.6992 15.5839 10.2725 16.1874 10.1085C16.7199 9.96382 17.2811 9.96382 17.8136 10.1085C18.417 10.2725 18.9635 10.6992 20.0565 11.5525L22.0788 13.1313C22.784 13.6819 23.1366 13.9571 23.3907 14.3019C23.6157 14.6073 23.7833 14.9513 23.8853 15.3171C24.0005 15.7301 24.0005 16.1785 24.0005 17.0753V19.0035C24.0005 20.7524 24.0005 21.6269 23.6614 22.2949C23.3631 22.8825 22.8872 23.3602 22.3018 23.6596C21.6363 24 20.7651 24 19.0227 24H14.9783C13.2359 24 12.3647 24 11.6992 23.6596C11.1138 23.3602 10.6379 22.8825 10.3396 22.2949C10.0005 21.6269 10.0005 20.7524 10.0005 19.0035Z" stroke="#161616" stroke-width="1.6" stroke-linecap="round" stroke-linejoin="round"/>
</svg>
