<svg width="34" height="34" viewBox="0 0 34 34" fill="none" xmlns="http://www.w3.org/2000/svg">
<rect x="0.000488281" width="34" height="34" rx="17" fill="#161616"/>
<path d="M13.5005 13.1111H10.0005M13.5005 17H10.0005M13.5005 20.8889H10.0005M17.0005 10V24M14.5505 24H21.2005C22.1806 24 22.6706 24 23.045 23.8305C23.3743 23.6813 23.642 23.4433 23.8097 23.1507C24.0005 22.8179 24.0005 22.3823 24.0005 21.5111V12.4889C24.0005 11.6177 24.0005 11.1821 23.8097 10.8494C23.642 10.5567 23.3743 10.3187 23.045 10.1696C22.6706 10 22.1806 10 21.2005 10H14.5505C13.5704 10 13.0804 10 12.706 10.1696C12.3767 10.3187 12.109 10.5567 11.9412 10.8494C11.7505 11.1821 11.7505 11.6177 11.7505 12.4889V21.5111C11.7505 22.3823 11.7505 22.8179 11.9412 23.1507C12.109 23.4433 12.3767 23.6813 12.706 23.8305C13.0804 24 13.5704 24 14.5505 24Z" stroke="white" stroke-width="1.51667" stroke-linecap="round" stroke-linejoin="round"/>
</svg>
