<svg width="34" height="34" viewBox="0 0 34 34" fill="none" xmlns="http://www.w3.org/2000/svg">
<rect x="0.000488281" width="34" height="34" rx="17" fill="#161616"/>
<path d="M17.0005 21.6667H17.0075M16.1605 11.75H17.8405M15.0405 24H18.9605C19.7446 24 20.1366 24 20.4361 23.8305C20.6996 23.6813 20.9137 23.4433 21.0479 23.1507C21.2005 22.8179 21.2005 22.3823 21.2005 21.5111V12.4889C21.2005 11.6177 21.2005 11.1821 21.0479 10.8493C20.9137 10.5567 20.6996 10.3187 20.4361 10.1695C20.1366 10 19.7446 10 18.9605 10H15.0405C14.2565 10 13.8644 10 13.565 10.1695C13.3015 10.3187 13.0874 10.5567 12.9531 10.8493C12.8005 11.1821 12.8005 11.6177 12.8005 12.4889V21.5111C12.8005 22.3823 12.8005 22.8179 12.9531 23.1507C13.0874 23.4433 13.3015 23.6813 13.565 23.8305C13.8644 24 14.2565 24 15.0405 24Z" stroke="white" stroke-width="1.4" stroke-linecap="round" stroke-linejoin="round"/>
</svg>
