<svg width="34" height="34" viewBox="0 0 34 34" fill="none" xmlns="http://www.w3.org/2000/svg">
<rect width="34" height="34" rx="17" fill="#161616"/>
<path d="M11.949 14.8003C13.1117 14.8003 14.0543 13.9049 14.0543 12.8003C14.0543 11.6957 13.1117 10.8003 11.949 10.8003C10.7863 10.8003 9.84375 11.6957 9.84375 12.8003C9.84375 13.9049 10.7863 14.8003 11.949 14.8003ZM11.949 14.8003V15.4403C11.949 16.3364 11.949 16.7844 12.1326 17.1267C12.2941 17.4277 12.5517 17.6725 12.8686 17.8259C13.2289 18.0003 13.7005 18.0003 14.6438 18.0003H17.0016M22.0543 14.8003C23.217 14.8003 24.1595 13.9049 24.1595 12.8003C24.1595 11.6957 23.217 10.8003 22.0543 10.8003C20.8916 10.8003 19.949 11.6957 19.949 12.8003C19.949 13.9049 20.8916 14.8003 22.0543 14.8003ZM22.0543 14.8003V15.4403C22.0543 16.3364 22.0543 16.7844 21.8707 17.1267C21.7092 17.4277 21.4516 17.6725 21.1347 17.8259C20.7744 18.0003 20.3028 18.0003 19.3595 18.0003H17.0016M17.0016 21.2003C15.8389 21.2003 14.8964 22.0957 14.8964 23.2003C14.8964 24.3049 15.8389 25.2003 17.0016 25.2003C18.1644 25.2003 19.1069 24.3049 19.1069 23.2003C19.1069 22.0957 18.1644 21.2003 17.0016 21.2003ZM17.0016 21.2003V18.0003" stroke="white" stroke-width="1.70667" stroke-linecap="round" stroke-linejoin="round"/>
</svg>
