<svg width="34" height="34" viewBox="0 0 34 34" fill="none" xmlns="http://www.w3.org/2000/svg">
<rect width="34" height="34" rx="17" fill="#161616"/>
<path d="M14.2 10H19.8C22.6 10 24 11.4 24 14.2V23.3C24 23.685 23.685 24 23.3 24H14.2C11.4 24 10 22.6 10 19.8V14.2C10 11.4 11.4 10 14.2 10Z" stroke="white" stroke-width="1.5" stroke-linecap="round" stroke-linejoin="round"/>
<path d="M16.3621 14.0887L19.9951 17.7217C20.1351 17.8617 20.2681 18.1347 20.2961 18.3307L20.4921 19.7167C20.5621 20.2207 20.2121 20.5707 19.7081 20.5007L18.3221 20.3047C18.1261 20.2767 17.8531 20.1437 17.7131 20.0037L14.0801 16.3707C13.4571 15.7477 13.1561 15.0197 14.0801 14.0957C15.0041 13.1647 15.7321 13.4587 16.3621 14.0887V14.0887Z" stroke="white" stroke-width="1.5" stroke-miterlimit="10" stroke-linecap="round" stroke-linejoin="round"/>
<path d="M16.8818 14.6064C16.7299 15.1491 16.4407 15.6434 16.0423 16.0419C15.6438 16.4403 15.1495 16.7295 14.6068 16.8814" stroke="white" stroke-width="1.5" stroke-miterlimit="10" stroke-linecap="round" stroke-linejoin="round"/>
</svg>
