<svg width="34" height="34" viewBox="0 0 34 34" fill="none" xmlns="http://www.w3.org/2000/svg">
<rect x="-0.000732422" width="34" height="34" rx="17" fill="white"/>
<path d="M14.1993 10H19.7993C22.5993 10 23.9993 11.4 23.9993 14.2V23.3C23.9993 23.685 23.6843 24 23.2993 24H14.1993C11.3993 24 9.99927 22.6 9.99927 19.8V14.2C9.99927 11.4 11.3993 10 14.1993 10Z" stroke="#161616" stroke-width="1.5" stroke-linecap="round" stroke-linejoin="round"/>
<path d="M16.3613 14.0886L19.9943 17.7216C20.1343 17.8616 20.2673 18.1346 20.2953 18.3306L20.4913 19.7166C20.5613 20.2206 20.2113 20.5706 19.7073 20.5006L18.3213 20.3046C18.1253 20.2766 17.8523 20.1436 17.7123 20.0036L14.0793 16.3706C13.4563 15.7476 13.1553 15.0196 14.0793 14.0956C15.0033 13.1646 15.7313 13.4586 16.3613 14.0886V14.0886Z" stroke="#161616" stroke-width="1.5" stroke-miterlimit="10" stroke-linecap="round" stroke-linejoin="round"/>
<path d="M16.8811 14.6064C16.7291 15.149 16.44 15.6434 16.0415 16.0418C15.6431 16.4403 15.1487 16.7294 14.6061 16.8814" stroke="#161616" stroke-width="1.5" stroke-miterlimit="10" stroke-linecap="round" stroke-linejoin="round"/>
</svg>
