<svg width="34" height="34" viewBox="0 0 34 34" fill="none" xmlns="http://www.w3.org/2000/svg">
<rect x="0.000488281" width="34" height="34" rx="17" fill="white"/>
<path d="M13.677 16.2222H20.1109M15.5153 13.1111H20.1109M13.677 19.3333H16.4344M16.4344 22.4444L14.4238 24L12.0111 22.4444L10.0005 24V13.7333C10.0005 12.4265 10.0005 11.7731 10.301 11.274C10.5654 10.835 10.9872 10.478 11.506 10.2543C12.0959 10 12.868 10 14.4123 10H18.4565C20.0008 10 20.7729 10 21.3627 10.2543C21.8816 10.478 22.3034 10.835 22.5678 11.274C22.8683 11.7731 22.8683 12.4265 22.8683 13.7333V17M24.0005 21.3706C23.0996 19.6991 22.0817 19.4261 21.1451 19.4261C19.835 19.4261 18.7729 20.3692 18.7729 21.5326C18.7729 22.696 19.835 23.6391 21.1451 23.6391C21.6762 23.6391 22.1693 23.4841 22.5678 23.2222M24.0005 21.3706V19.4261M24.0005 21.3706H21.7601" stroke="#161616" stroke-width="1.4" stroke-linecap="round" stroke-linejoin="round"/>
</svg>
