<svg width="50" height="50" viewBox="0 0 50 50" fill="none" xmlns="http://www.w3.org/2000/svg">
<rect width="50" height="50" rx="25" fill="#161616"/>
<path d="M21.1429 23.8889H30.1429M23.7143 19.4444H30.1429M21.1429 28.3333H30.1429M16 35V20.3333C16 18.4665 16 17.5331 16.4204 16.82C16.7902 16.1928 17.3803 15.6829 18.106 15.3633C18.9311 15 20.0112 15 22.1714 15H27.8286C29.9888 15 31.0689 15 31.894 15.3633C32.6197 15.6829 33.2098 16.1928 33.5796 16.82C34 17.5331 34 18.4665 34 20.3333V35L31.1875 32.7778L27.8125 35L25 32.7778L22.1875 35L18.8125 32.7778L16 35Z" stroke="white" stroke-width="2" stroke-linecap="round" stroke-linejoin="round"/>
</svg>
