<svg width="50" height="50" viewBox="0 0 50 50" fill="none" xmlns="http://www.w3.org/2000/svg">
<rect width="50" height="50" rx="25" fill="#161616"/>
<path d="M20 19.4445H15M20 25H15M20 30.5556H15M25 15V35M21.5 35H31C32.4001 35 33.1002 35 33.635 34.7578C34.1054 34.5447 34.4878 34.2048 34.7275 33.7866C35 33.3113 35 32.689 35 31.4445V18.5556C35 17.311 35 16.6887 34.7275 16.2134C34.4878 15.7953 34.1054 15.4553 33.635 15.2422C33.1002 15 32.4001 15 31 15H21.5C20.0999 15 19.3998 15 18.865 15.2422C18.3946 15.4553 18.0122 15.7953 17.7725 16.2134C17.5 16.6887 17.5 17.311 17.5 18.5556V31.4445C17.5 32.689 17.5 33.3113 17.7725 33.7866C18.0122 34.2048 18.3946 34.5447 18.865 34.7578C19.3998 35 20.0999 35 21.5 35Z" stroke="white" stroke-width="1.625" stroke-linecap="round" stroke-linejoin="round"/>
</svg>
