<svg width="180" height="50" viewBox="0 0 180 50" fill="none" xmlns="http://www.w3.org/2000/svg">
<rect width="180" height="50" rx="25" fill="#161616"/>
<path d="M27 31V34M33 31V34M25 34H35M21 25H39M30 28H30.01M25.8 31H34.2C35.8802 31 36.7202 31 37.362 30.673C37.9265 30.3854 38.3854 29.9265 38.673 29.362C39 28.7202 39 27.8802 39 26.2V20.8C39 19.1198 39 18.2798 38.673 17.638C38.3854 17.0735 37.9265 16.6146 37.362 16.327C36.7202 16 35.8802 16 34.2 16H25.8C24.1198 16 23.2798 16 22.638 16.327C22.0735 16.6146 21.6146 17.0735 21.327 17.638C21 18.2798 21 19.1198 21 20.8V26.2C21 27.8802 21 28.7202 21.327 29.362C21.6146 29.9265 22.0735 30.3854 22.638 30.673C23.2798 31 24.1198 31 25.8 31Z" stroke="white" stroke-width="2" stroke-linecap="round" stroke-linejoin="round"/>
<rect x="55" y="5" width="120" height="40" rx="20" fill="white"/>
<path d="M91.6136 18.8636V30.5H90.2045V20.1136H84.3409V30.5H82.9318V18.8636H91.6136ZM97.9332 30.6818C97.0923 30.6818 96.367 30.4962 95.7571 30.125C95.151 29.75 94.6832 29.2273 94.3537 28.5568C94.0279 27.8826 93.8651 27.0985 93.8651 26.2045C93.8651 25.3106 94.0279 24.5227 94.3537 23.8409C94.6832 23.1553 95.1416 22.6212 95.7287 22.2386C96.3196 21.8523 97.009 21.6591 97.7969 21.6591C98.2514 21.6591 98.7003 21.7348 99.1435 21.8864C99.5866 22.0379 99.9901 22.2841 100.354 22.625C100.717 22.9621 101.007 23.4091 101.223 23.9659C101.439 24.5227 101.547 25.2083 101.547 26.0227V26.5909H94.8196V25.4318H100.183C100.183 24.9394 100.085 24.5 99.8878 24.1136C99.6946 23.7273 99.4181 23.4223 99.0582 23.1989C98.7022 22.9754 98.2817 22.8636 97.7969 22.8636C97.2628 22.8636 96.8007 22.9962 96.4105 23.2614C96.0241 23.5227 95.7268 23.8636 95.5185 24.2841C95.3101 24.7045 95.206 25.1553 95.206 25.6364V26.4091C95.206 27.0682 95.3196 27.6269 95.5469 28.0852C95.7779 28.5398 96.098 28.8864 96.5071 29.125C96.9162 29.3598 97.3916 29.4773 97.9332 29.4773C98.2855 29.4773 98.6037 29.428 98.8878 29.3295C99.1757 29.2273 99.4238 29.0758 99.6321 28.875C99.8404 28.6705 100.001 28.4167 100.115 28.1136L101.411 28.4773C101.274 28.9167 101.045 29.303 100.723 29.6364C100.401 29.9659 100.003 30.2235 99.5298 30.4091C99.0563 30.5909 98.5241 30.6818 97.9332 30.6818ZM103.587 33.7727V21.7727H104.882V23.1591H105.041C105.14 23.0076 105.276 22.8144 105.45 22.5795C105.628 22.3409 105.882 22.1288 106.212 21.9432C106.545 21.7538 106.996 21.6591 107.564 21.6591C108.299 21.6591 108.946 21.8428 109.507 22.2102C110.068 22.5777 110.505 23.0985 110.82 23.7727C111.134 24.447 111.291 25.2424 111.291 26.1591C111.291 27.0833 111.134 27.8845 110.82 28.5625C110.505 29.2367 110.07 29.7595 109.513 30.1307C108.956 30.4981 108.314 30.6818 107.587 30.6818C107.026 30.6818 106.577 30.589 106.24 30.4034C105.903 30.214 105.643 30 105.462 29.7614C105.28 29.5189 105.14 29.3182 105.041 29.1591H104.928V33.7727H103.587ZM104.905 26.1364C104.905 26.7955 105.001 27.3769 105.195 27.8807C105.388 28.3807 105.67 28.7727 106.041 29.0568C106.412 29.3371 106.867 29.4773 107.405 29.4773C107.965 29.4773 108.433 29.3295 108.808 29.0341C109.187 28.7348 109.471 28.3333 109.661 27.8295C109.854 27.322 109.95 26.7576 109.95 26.1364C109.95 25.5227 109.856 24.9697 109.666 24.4773C109.481 23.9811 109.198 23.589 108.82 23.3011C108.445 23.0095 107.973 22.8636 107.405 22.8636C106.859 22.8636 106.401 23.0019 106.03 23.2784C105.659 23.5511 105.378 23.9337 105.189 24.4261C105 24.9148 104.905 25.4848 104.905 26.1364ZM116.996 30.6818C116.155 30.6818 115.429 30.4962 114.82 30.125C114.214 29.75 113.746 29.2273 113.416 28.5568C113.09 27.8826 112.928 27.0985 112.928 26.2045C112.928 25.3106 113.09 24.5227 113.416 23.8409C113.746 23.1553 114.204 22.6212 114.791 22.2386C115.382 21.8523 116.071 21.6591 116.859 21.6591C117.314 21.6591 117.763 21.7348 118.206 21.8864C118.649 22.0379 119.053 22.2841 119.416 22.625C119.78 22.9621 120.07 23.4091 120.286 23.9659C120.501 24.5227 120.609 25.2083 120.609 26.0227V26.5909H113.882V25.4318H119.246C119.246 24.9394 119.147 24.5 118.95 24.1136C118.757 23.7273 118.481 23.4223 118.121 23.1989C117.765 22.9754 117.344 22.8636 116.859 22.8636C116.325 22.8636 115.863 22.9962 115.473 23.2614C115.087 23.5227 114.789 23.8636 114.581 24.2841C114.373 24.7045 114.268 25.1553 114.268 25.6364V26.4091C114.268 27.0682 114.382 27.6269 114.609 28.0852C114.84 28.5398 115.161 28.8864 115.57 29.125C115.979 29.3598 116.454 29.4773 116.996 29.4773C117.348 29.4773 117.666 29.428 117.95 29.3295C118.238 29.2273 118.486 29.0758 118.695 28.875C118.903 28.6705 119.064 28.4167 119.178 28.1136L120.473 28.4773C120.337 28.9167 120.107 29.303 119.786 29.6364C119.464 29.9659 119.066 30.2235 118.592 30.4091C118.119 30.5909 117.587 30.6818 116.996 30.6818ZM123.99 28.5227L128.195 21.7727H129.74V30.5H128.399V23.75L124.217 30.5H122.649V21.7727H123.99V28.5227ZM127.308 18.8636H128.558C128.558 19.4773 128.346 19.9792 127.922 20.3693C127.498 20.7595 126.922 20.9545 126.195 20.9545C125.479 20.9545 124.909 20.7595 124.484 20.3693C124.064 19.9792 123.854 19.4773 123.854 18.8636H125.104C125.104 19.1591 125.185 19.4186 125.348 19.642C125.515 19.8655 125.797 19.9773 126.195 19.9773C126.592 19.9773 126.876 19.8655 127.047 19.642C127.221 19.4186 127.308 19.1591 127.308 18.8636ZM131.009 23.0227V21.7727H138.099V23.0227H135.236V30.5H133.895V23.0227H131.009ZM141.396 28.5227L145.601 21.7727H147.146V30.5H145.805V23.75L141.624 30.5H140.055V21.7727H141.396V28.5227Z" fill="#161616"/>
</svg>
