<svg width="50" height="50" viewBox="0 0 50 50" fill="none" xmlns="http://www.w3.org/2000/svg">
<rect width="50" height="50" rx="25" fill="#161616"/>
<path d="M20.727 23.8889H28.9991M23.0904 19.4444H28.9991M20.727 28.3333H24.2722M24.2722 32.7778L21.6871 35L18.5851 32.7778L16 35V20.3333C16 18.4665 16 17.5331 16.3864 16.82C16.7263 16.1928 17.2686 15.6829 17.9357 15.3633C18.6941 15 19.6868 15 21.6723 15H26.872C28.8575 15 29.8503 15 30.6086 15.3633C31.2757 15.6829 31.818 16.1928 32.1579 16.82C32.5443 17.5331 32.5443 18.4665 32.5443 20.3333V25M34 31.2437C32.8417 28.8558 31.533 28.4659 30.3288 28.4659C28.6444 28.4659 27.2789 29.8132 27.2789 31.4752C27.2789 33.1371 28.6444 34.4844 30.3288 34.4844C31.0117 34.4844 31.6457 34.263 32.1579 33.8889M34 31.2437V28.4659M34 31.2437H31.1195" stroke="white" stroke-width="2" stroke-linecap="round" stroke-linejoin="round"/>
</svg>
