<svg width="50" height="50" viewBox="0 0 50 50" fill="none" xmlns="http://www.w3.org/2000/svg">
<rect width="50" height="50" rx="25" fill="#161616"/>
<path d="M25 31.6667H25.01M23.8 17.5H26.2M22.2 35H27.8C28.9201 35 29.4802 35 29.908 34.7578C30.2843 34.5447 30.5903 34.2048 30.782 33.7866C31 33.3113 31 32.689 31 31.4444V18.5556C31 17.311 31 16.6887 30.782 16.2134C30.5903 15.7952 30.2843 15.4553 29.908 15.2422C29.4802 15 28.9201 15 27.8 15H22.2C21.0799 15 20.5198 15 20.092 15.2422C19.7157 15.4553 19.4097 15.7952 19.218 16.2134C19 16.6887 19 17.311 19 18.5556V31.4444C19 32.689 19 33.3113 19.218 33.7866C19.4097 34.2048 19.7157 34.5447 20.092 34.7578C20.5198 35 21.0799 35 22.2 35Z" stroke="white" stroke-width="2" stroke-linecap="round" stroke-linejoin="round"/>
</svg>
