<svg width="33" height="32" viewBox="0 0 33 32" fill="none" xmlns="http://www.w3.org/2000/svg">
<g clip-path="url(#clip0_5932_7592)">
<path d="M22.5076 14.4727C20.5371 14.4727 20.2644 16.4363 20.2644 16.4363H24.4508C24.4508 16.4363 24.4781 14.4727 22.5076 14.4727ZM13.0099 16.4363H9.30078V19.8454H12.8258C13.3576 19.8317 14.3531 19.6817 14.3531 18.1886C14.3531 16.4158 13.0099 16.4363 13.0099 16.4363Z" fill="#4063E0"/>
<path d="M16.5 0C7.66429 0 0.5 7.16429 0.5 16C0.5 24.8357 7.66429 32 16.5 32C25.3357 32 32.5 24.8357 32.5 16C32.5 7.16429 25.3357 0 16.5 0ZM19.8714 9.82857H25.3786V11.4714H19.8714V9.82857ZM17.0857 18.4571C17.0857 22.5286 12.8429 22.4 12.8429 22.4H5.9V9.04286H12.8429C14.9571 9.04286 16.6214 10.2071 16.6214 12.6C16.6214 14.9929 14.5857 15.1429 14.5857 15.1429C17.2714 15.1429 17.0857 18.4571 17.0857 18.4571ZM27.3857 18.2357H20.4643C20.4643 20.7143 22.8143 20.5571 22.8143 20.5571C25.0357 20.5571 24.9571 19.1214 24.9571 19.1214H27.3071C27.3071 22.9357 22.7357 22.6714 22.7357 22.6714C17.2571 22.6714 17.6071 17.5643 17.6071 17.5643C17.6071 17.5643 17.6 12.4357 22.7357 12.4357C28.1429 12.4429 27.3857 18.2357 27.3857 18.2357Z" fill="#4063E0"/>
<path d="M13.9099 12.9516C13.9099 11.6289 13.0099 11.6289 13.0099 11.6289H9.30078V14.4721H12.7781C13.3781 14.4721 13.9099 14.2744 13.9099 12.9516Z" fill="#4063E0"/>
</g>
<defs>
<clipPath id="clip0_5932_7592">
<rect width="32" height="32" fill="white" transform="translate(0.5)"/>
</clipPath>
</defs>
</svg>
