<svg width="32" height="32" viewBox="0 0 32 32" fill="none" xmlns="http://www.w3.org/2000/svg">
<rect width="32" height="32" rx="16" fill="white"/>
<rect width="32" height="32" rx="16" fill="white"/>
<path d="M19.3333 16C19.3333 17.8409 17.8409 19.3333 16 19.3333C14.159 19.3333 12.6667 17.8409 12.6667 16C12.6667 14.159 14.159 12.6667 16 12.6667C17.8409 12.6667 19.3333 14.159 19.3333 16ZM19.3333 16V17.25C19.3333 18.4006 20.2661 19.3333 21.4167 19.3333C22.5672 19.3333 23.5 18.4006 23.5 17.25V16C23.5 11.8579 20.1422 8.5 16 8.5C11.8579 8.5 8.5 11.8579 8.5 16C8.5 20.1422 11.8579 23.5 16 23.5H19.3333" stroke="#161616" stroke-width="1.66667" stroke-linecap="round" stroke-linejoin="round"/>
</svg>
