<svg width="32" height="32" viewBox="0 0 32 32" fill="none" xmlns="http://www.w3.org/2000/svg">
<path fill-rule="evenodd" clip-rule="evenodd" d="M20.3333 31.4063C27.0645 29.5169 32 23.3348 32 16C32 7.16344 24.8366 0 16 0C7.16344 0 0 7.16344 0 16C0 24.4102 6.48891 31.3049 14.7333 31.9506V21.8462H11V17.2308H14.7333V13.5385C14.7333 10.4794 17.2403 8 20.3333 8H24.0667V12.6154H22.2C22.1167 12.6154 22.0347 12.6148 21.9543 12.6141C21.0399 12.6072 20.3333 12.6017 20.3333 13.5385V17.2308H25L23.1333 21.8462H20.3333V31.4063Z" fill="#1976D2"/>
</svg>
