<svg width="32" height="32" viewBox="0 0 32 32" fill="none" xmlns="http://www.w3.org/2000/svg">
<rect width="32" height="32" rx="16" fill="#161616"/>
<path d="M22.4782 18.5405C21.7163 17.912 21.0173 17.6065 20.3414 17.6065C19.3636 17.6065 18.6596 18.2449 18.0222 18.8988C17.9489 18.9741 17.8602 19.0092 17.743 19.0092C17.2059 19.0092 16.261 18.3189 14.9346 16.9575C13.3741 15.3559 12.7841 14.3373 13.1809 13.93C14.2563 12.8266 14.5921 11.7205 12.9455 9.61889C12.356 8.86594 11.7793 8.5 11.1823 8.5C10.3773 8.5 9.76535 9.16041 9.22543 9.74314C9.13208 9.84387 9.04391 9.93902 8.95745 10.0277C8.34721 10.654 8.34752 12.0199 8.95834 13.6818C9.62852 15.5053 10.9517 17.4889 12.6843 19.2673C14.0242 20.6423 15.4821 21.7535 16.9004 22.4996C18.1387 23.151 19.3398 23.5 20.2825 23.5C20.8725 23.5 21.352 23.3679 21.6685 23.0993C22.3114 22.5538 23.5079 21.5435 23.5 20.3433C23.4956 19.6996 23.1519 19.0963 22.4782 18.5405Z" fill="white"/>
</svg>
