<svg width="32" height="32" viewBox="0 0 32 32" fill="none" xmlns="http://www.w3.org/2000/svg">
<path d="M16 0C7.17774 0 0 7.17774 0 16C0 24.8223 7.17774 32 16 32C24.823 32 32 24.8223 32 16C32 7.17774 24.823 0 16 0ZM22.9377 19.1548C24.4939 20.5363 24.8174 21.0296 24.8703 21.1137C25.5151 22.1363 24.1551 22.2609 24.1551 22.2609H21.289C21.289 22.2609 20.5913 22.2685 19.9951 21.8734C19.0233 21.2369 18.0056 20.0028 17.2904 20.217C16.6901 20.3965 16.6957 21.2077 16.6957 21.9012C16.6957 22.1496 16.4821 22.2609 16 22.2609C15.5179 22.2609 15.3176 22.2609 15.104 22.2609C13.5339 22.2609 11.8303 21.7322 10.1308 19.9562C7.72661 17.4456 5.61809 12.3882 5.61809 12.3882C5.61809 12.3882 5.49357 12.1336 5.62922 11.9784C5.78296 11.8045 6.20104 11.8268 6.20104 11.8268L8.98017 11.8261C8.98017 11.8261 9.24174 11.8755 9.42957 12.0077C9.5847 12.1162 9.67096 12.3235 9.67096 12.3235C9.67096 12.3235 10.1377 13.865 10.7325 14.848C11.8943 16.7666 12.4348 16.8153 12.8292 16.6087C13.4052 16.3096 13.2174 14.2699 13.2174 14.2699C13.2174 14.2699 13.2431 13.3941 12.9426 13.0038C12.711 12.7019 12.2678 12.5412 12.0744 12.5162C11.9179 12.496 12.1795 12.2219 12.5127 12.0654C12.9579 11.8671 13.5638 11.8163 14.6087 11.8261C15.4219 11.8337 15.6563 11.8824 15.9736 11.9555C16.9329 12.1767 16.6957 12.7603 16.6957 14.8097C16.6957 15.4664 16.6052 16.3896 17.1005 16.6957C17.3141 16.8278 18.0459 16.9892 19.3482 14.8744C19.9666 13.8713 20.4584 12.2073 20.4584 12.2073C20.4584 12.2073 20.56 12.0243 20.7179 11.9339C20.8793 11.8414 20.8744 11.8435 21.0957 11.8435C21.3169 11.8435 23.5353 11.8261 24.0223 11.8261C24.5085 11.8261 24.9649 11.8205 25.0435 12.1057C25.1562 12.5155 24.6845 13.9193 23.4894 15.4428C21.5256 17.943 21.3078 17.7092 22.9377 19.1548Z" fill="#4680C2"/>
</svg>
