<svg width="33" height="32" viewBox="0 0 33 32" fill="none" xmlns="http://www.w3.org/2000/svg">
<g clip-path="url(#clip0_5932_7600)">
<path d="M19.1717 15.7217L15.4283 13.975C15.1017 13.8233 14.8333 13.9933 14.8333 14.355V17.645C14.8333 18.0067 15.1017 18.1767 15.4283 18.025L19.17 16.2783C19.4983 16.125 19.4983 15.875 19.1717 15.7217ZM16.5 0C7.66333 0 0.5 7.16333 0.5 16C0.5 24.8367 7.66333 32 16.5 32C25.3367 32 32.5 24.8367 32.5 16C32.5 7.16333 25.3367 0 16.5 0ZM16.5 22.5C8.31 22.5 8.16667 21.7617 8.16667 16C8.16667 10.2383 8.31 9.5 16.5 9.5C24.69 9.5 24.8333 10.2383 24.8333 16C24.8333 21.7617 24.69 22.5 16.5 22.5Z" fill="#FF0000"/>
</g>
<defs>
<clipPath id="clip0_5932_7600">
<rect width="32" height="32" fill="white" transform="translate(0.5)"/>
</clipPath>
</defs>
</svg>
