<svg width="15" height="17" viewBox="0 0 15 17" fill="none" xmlns="http://www.w3.org/2000/svg">
<path d="M4.25 4.33335H1M4.25 8.50001H1M4.25 12.6667H1M7.5 1V16M5.225 16H11.4C12.3101 16 12.7651 16 13.1127 15.8183C13.4185 15.6586 13.6671 15.4036 13.8229 15.09C14 14.7335 14 14.2668 14 13.3333V3.66669C14 2.73327 14 2.26656 13.8229 1.91004C13.6671 1.59644 13.4185 1.34147 13.1127 1.18168C12.7651 1.00003 12.3101 1.00003 11.4 1.00003H5.225C4.31491 1.00003 3.85987 1.00003 3.51227 1.18168C3.2065 1.34147 2.95791 1.59644 2.80211 1.91004C2.625 2.26656 2.625 2.73327 2.625 3.66669V13.3333C2.625 14.2668 2.625 14.7335 2.80211 15.09C2.95791 15.4036 3.2065 15.6586 3.51227 15.8183C3.85987 16 4.31491 16 5.225 16Z" stroke="white" stroke-width="1.625" stroke-linecap="round" stroke-linejoin="round"/>
</svg>
