<svg width="15" height="18" viewBox="0 0 15 18" fill="none" xmlns="http://www.w3.org/2000/svg">
<path d="M4.25 4.83335H1M4.25 9.00001H1M4.25 13.1667H1M7.5 1.5V16.5M5.225 16.5H11.4C12.3101 16.5 12.7651 16.5 13.1127 16.3183C13.4185 16.1586 13.6671 15.9036 13.8229 15.59C14 15.2335 14 14.7668 14 13.8333V4.16669C14 3.23327 14 2.76656 13.8229 2.41004C13.6671 2.09644 13.4185 1.84147 13.1127 1.68168C12.7651 1.50003 12.3101 1.50003 11.4 1.50003H5.225C4.31491 1.50003 3.85987 1.50003 3.51227 1.68168C3.2065 1.84147 2.95791 2.09644 2.80211 2.41004C2.625 2.76656 2.625 3.23327 2.625 4.16669V13.8333C2.625 14.7668 2.625 15.2335 2.80211 15.59C2.95791 15.9036 3.2065 16.1586 3.51227 16.3183C3.85987 16.5 4.31491 16.5 5.225 16.5Z" stroke="#161616" stroke-width="1.625" stroke-linecap="round" stroke-linejoin="round"/>
</svg>
