<svg width="16" height="18" viewBox="0 0 16 18" fill="none" xmlns="http://www.w3.org/2000/svg">
<path d="M11.25 13.1667L14.5 16.5M14.5 13.1667L11.25 16.5M8 1.5H5.4C4.03487 1.5 3.35231 1.5 2.8309 1.77248C2.37225 2.01217 1.99936 2.39462 1.76567 2.86502C1.5 3.3998 1.5 4.09987 1.5 5.5V12.5C1.5 13.9001 1.5 14.6002 1.76567 15.135C1.99936 15.6054 2.37225 15.9878 2.8309 16.2275C3.35231 16.5 4.03487 16.5 5.4 16.5H7.1875M8 1.5L12.875 6.5M8 1.5V3.83333C8 4.76675 8 5.23346 8.17711 5.58998C8.33291 5.90359 8.5815 6.15856 8.88727 6.31834C9.23487 6.5 9.68992 6.5 10.6 6.5H12.875M12.875 6.5V9.83333" stroke="white" stroke-width="1.66667" stroke-linecap="round" stroke-linejoin="round"/>
</svg>
