<svg width="15" height="17" viewBox="0 0 15 17" fill="none" xmlns="http://www.w3.org/2000/svg">
<path d="M14 12.6667C13.0199 10.5176 11.9124 10.1667 10.8934 10.1667C9.468 10.1667 8.3125 11.3792 8.3125 12.875C8.3125 14.3708 9.468 15.5833 10.8934 15.5833C11.4713 15.5833 12.0077 15.384 12.4412 15.0474M14 12.6667V10.1667M14 12.6667H11.5625M7.5 1H4.9C3.53487 1 2.85231 1 2.3309 1.27248C1.87225 1.51217 1.49936 1.89462 1.26567 2.36502C1 2.8998 1 3.59987 1 5V12C1 13.4001 1 14.1002 1.26567 14.635C1.49936 15.1054 1.87225 15.4878 2.3309 15.7275C2.85231 16 3.53487 16 4.9 16H5.875M7.5 1L12.375 6M7.5 1V3.33333C7.5 4.26675 7.5 4.73346 7.67711 5.08998C7.83291 5.40359 8.0815 5.65856 8.38727 5.81834C8.73487 6 9.18992 6 10.1 6H12.375M12.375 6V6.83333" stroke="white" stroke-width="1.625" stroke-linecap="round" stroke-linejoin="round"/>
</svg>
