<svg width="15" height="17" viewBox="0 0 15 17" fill="none" xmlns="http://www.w3.org/2000/svg">
<path d="M7.5 1H4.9C3.53487 1 2.85231 1 2.3309 1.27248C1.87225 1.51217 1.49936 1.89462 1.26567 2.36502C1 2.8998 1 3.59987 1 5V12C1 13.4001 1 14.1002 1.26567 14.635C1.49936 15.1054 1.87225 15.4878 2.3309 15.7275C2.85231 16 3.53487 16 4.9 16L6 16M7.5 1L12.375 6M7.5 1V3.33333C7.5 4.26675 7.5 4.73346 7.67711 5.08998C7.83291 5.40359 8.0815 5.65855 8.38726 5.81834C8.73487 6 9.18991 6 10.1 6H12.375M12.375 6V7.66667M8.5 16L10.1038 15.6625C10.2436 15.6331 10.3135 15.6184 10.3787 15.5915C10.4366 15.5676 10.4916 15.5366 10.5426 15.4992C10.6 15.457 10.6505 15.404 10.7513 15.2979L13.7106 12.1667C14.1481 11.7064 14.1481 10.9602 13.7106 10.5C13.2732 10.0398 12.5641 10.0398 12.1266 10.5L9.1673 13.6312C9.06646 13.7373 9.01604 13.7904 8.97597 13.8508C8.94041 13.9045 8.91098 13.9623 8.88828 14.0232C8.86271 14.0918 8.84872 14.1654 8.82075 14.3125L8.5 16Z" stroke="#161616" stroke-width="1.625" stroke-linecap="round" stroke-linejoin="round"/>
</svg>
