<svg width="15" height="17" viewBox="0 0 15 17" fill="none" xmlns="http://www.w3.org/2000/svg">
<path d="M7.5 1H4.9C3.53487 1 2.85231 1 2.3309 1.27248C1.87225 1.51217 1.49936 1.89462 1.26567 2.36502C1 2.8998 1 3.59987 1 5V12C1 13.4001 1 14.1002 1.26567 14.635C1.49936 15.1054 1.87225 15.4878 2.3309 15.7275C2.85231 16 3.53487 16 4.9 16L6 15.9995M7.5 1L12.375 6M7.5 1V3.33333C7.5 4.26675 7.5 4.73346 7.67711 5.08998C7.83291 5.40359 8.0815 5.65855 8.38726 5.81834C8.73487 6 9.18991 6 10.1 6H12.375M12.375 6V7.66667M8.5 15.9995L10.1038 15.662C10.2436 15.6326 10.3135 15.6178 10.3787 15.5909C10.4366 15.567 10.4916 15.5361 10.5426 15.4987C10.6 15.4565 10.6505 15.4035 10.7513 15.2973L13.7106 12.1661C14.1481 11.7059 14.1481 10.9597 13.7106 10.4995C13.2732 10.0392 12.5641 10.0392 12.1266 10.4995L9.1673 13.6307C9.06646 13.7368 9.01604 13.7898 8.97597 13.8503C8.94041 13.9039 8.91098 13.9618 8.88828 14.0227C8.86271 14.0913 8.84872 14.1649 8.82075 14.312L8.5 15.9995Z" stroke="white" stroke-width="1.625" stroke-linecap="round" stroke-linejoin="round"/>
</svg>
