<svg width="15" height="18" viewBox="0 0 15 18" fill="none" xmlns="http://www.w3.org/2000/svg">
<path d="M7.00978 8.99982C7.93752 8.99982 8.82726 8.60474 9.48328 7.90149C10.1393 7.19825 10.5078 6.24445 10.5078 5.24991C10.5078 4.25537 10.1393 3.30157 9.48328 2.59832C8.82726 1.89508 7.93752 1.5 7.00978 1.5C6.08203 1.5 5.19229 1.89508 4.53628 2.59832C3.88026 3.30157 3.51172 4.25537 3.51172 5.24991C3.51172 6.24445 3.88026 7.19825 4.53628 7.90149C5.19229 8.60474 6.08203 8.99982 7.00978 8.99982V8.99982Z" stroke="white" stroke-width="1.5" stroke-linecap="round" stroke-linejoin="round"/>
<path d="M1 16.4999C1 13.5974 3.69351 11.25 7.00966 11.25C7.73726 11.25 8.43687 11.3625 9.08751 11.5725" stroke="white" stroke-width="1.5" stroke-linecap="round" stroke-linejoin="round"/>
<path d="M14 14L9 14M11.5 11.5V16.5" stroke="white" stroke-width="1.5" stroke-linecap="round" stroke-linejoin="round"/>
</svg>
