<svg width="15" height="17" viewBox="0 0 15 17" fill="none" xmlns="http://www.w3.org/2000/svg">
<path d="M7.00978 8.49982C7.93752 8.49982 8.82726 8.10474 9.48328 7.40149C10.1393 6.69825 10.5078 5.74445 10.5078 4.74991C10.5078 3.75537 10.1393 2.80157 9.48328 2.09832C8.82726 1.39508 7.93752 1 7.00978 1C6.08203 1 5.19229 1.39508 4.53628 2.09832C3.88026 2.80157 3.51172 3.75537 3.51172 4.74991C3.51172 5.74445 3.88026 6.69825 4.53628 7.40149C5.19229 8.10474 6.08203 8.49982 7.00978 8.49982Z" stroke="#161616" stroke-width="1.5" stroke-linecap="round" stroke-linejoin="round"/>
<path d="M1 15.9999C1 13.0974 3.69351 10.75 7.00966 10.75C7.73726 10.75 8.43687 10.8625 9.08751 11.0725" stroke="#161616" stroke-width="1.5" stroke-linecap="round" stroke-linejoin="round"/>
<path d="M14 13.5L9 13.5M11.5 11V16" stroke="#161616" stroke-width="1.5" stroke-linecap="round" stroke-linejoin="round"/>
</svg>
