<svg width="16" height="18" viewBox="0 0 16 18" fill="none" xmlns="http://www.w3.org/2000/svg">
<path d="M5.4 1.5H10.6C13.2 1.5 14.5 3 14.5 6V15.75C14.5 16.1625 14.2075 16.5 13.85 16.5H5.4C2.8 16.5 1.5 15 1.5 12V6C1.5 3 2.8 1.5 5.4 1.5Z" stroke="white" stroke-width="1.5" stroke-linecap="round" stroke-linejoin="round"/>
<path d="M7.4077 5.87865L10.7812 9.77115C10.9112 9.92115 11.0347 10.2136 11.0607 10.4236L11.2427 11.9086C11.3077 12.4486 10.9827 12.8236 10.5147 12.7486L9.2277 12.5386C9.0457 12.5086 8.7922 12.3661 8.6622 12.2161L5.2887 8.32365C4.7102 7.65615 4.4307 6.87615 5.2887 5.88615C6.1467 4.88865 6.8227 5.20365 7.4077 5.87865V5.87865Z" stroke="white" stroke-width="1.5" stroke-miterlimit="10" stroke-linecap="round" stroke-linejoin="round"/>
<path d="M7.88965 6.4375C7.74853 7.01888 7.48005 7.54854 7.11005 7.97546C6.74005 8.40238 6.28101 8.71217 5.77715 8.875" stroke="white" stroke-width="1.5" stroke-miterlimit="10" stroke-linecap="round" stroke-linejoin="round"/>
</svg>
