<svg width="15" height="18" viewBox="0 0 15 18" fill="none" xmlns="http://www.w3.org/2000/svg">
<path d="M9.125 13.1667L10.75 14.8333L14 11.5M7.5 1.5H4.9C3.53487 1.5 2.85231 1.5 2.3309 1.77248C1.87225 2.01217 1.49936 2.39462 1.26567 2.86502C1 3.3998 1 4.09987 1 5.5V12.5C1 13.9001 1 14.6002 1.26567 15.135C1.49936 15.6054 1.87225 15.9878 2.3309 16.2275C2.85231 16.5 3.53487 16.5 4.9 16.5H7.09375M7.5 1.5L12.375 6.5M7.5 1.5V3.83333C7.5 4.76675 7.5 5.23346 7.67711 5.58998C7.83291 5.90359 8.0815 6.15856 8.38727 6.31834C8.73487 6.5 9.18992 6.5 10.1 6.5H12.375M12.375 6.5V8.58333" stroke="white" stroke-width="1.66667" stroke-linecap="round" stroke-linejoin="round"/>
</svg>
