<svg width="15" height="17" viewBox="0 0 15 17" fill="none" xmlns="http://www.w3.org/2000/svg">
<path d="M10.3043 11.4185C10.4533 11.0011 10.7475 10.6492 11.1347 10.425C11.5219 10.2008 11.9771 10.1188 12.4198 10.1936C12.8624 10.2684 13.2639 10.4952 13.5531 10.8337C13.8424 11.1722 14.0007 11.6006 14 12.0431C14 13.2921 12.0983 13.9167 12.0983 13.9167M11.996 16H12.0044M7.76676 1H5.06006C3.6389 1 2.92833 1 2.38552 1.27248C1.90805 1.51217 1.51986 1.89462 1.27657 2.36502C1 2.8998 1 3.59987 1 5V12C1 13.4001 1 14.1002 1.27657 14.635C1.51986 15.1054 1.90805 15.4878 2.38552 15.7275C2.92833 16 3.6389 16 5.06006 16H6.92092M7.76676 1L12.8418 6M7.76676 1V3.33333C7.76676 4.26675 7.76676 4.73346 7.95114 5.08998C8.11333 5.40359 8.37213 5.65856 8.69044 5.81834C9.05231 6 9.52603 6 10.4735 6H12.8418M12.8418 6V6.83333" stroke="#161616" stroke-width="1.69169" stroke-linecap="round" stroke-linejoin="round"/>
</svg>
