<svg width="16" height="18" viewBox="0 0 16 18" fill="none" xmlns="http://www.w3.org/2000/svg">
<path d="M14.5 13.1667C13.5199 11.0176 12.4124 10.6667 11.3934 10.6667C9.968 10.6667 8.8125 11.8792 8.8125 13.375C8.8125 14.8708 9.968 16.0833 11.3934 16.0833C11.9713 16.0833 12.5077 15.884 12.9412 15.5474M14.5 13.1667V10.6667M14.5 13.1667H12.0625M8 1.5H5.4C4.03487 1.5 3.35231 1.5 2.8309 1.77248C2.37225 2.01217 1.99936 2.39462 1.76567 2.86502C1.5 3.3998 1.5 4.09987 1.5 5.5V12.5C1.5 13.9001 1.5 14.6002 1.76567 15.135C1.99936 15.6054 2.37225 15.9878 2.8309 16.2275C3.35231 16.5 4.03487 16.5 5.4 16.5H6.375M8 1.5L12.875 6.5M8 1.5V3.83333C8 4.76675 8 5.23346 8.17711 5.58998C8.33291 5.90359 8.5815 6.15856 8.88727 6.31834C9.23487 6.5 9.68992 6.5 10.6 6.5H12.875M12.875 6.5V7.33333" stroke="white" stroke-width="1.625" stroke-linecap="round" stroke-linejoin="round"/>
</svg>
