<svg width="15" height="17" viewBox="0 0 15 17" fill="none" xmlns="http://www.w3.org/2000/svg">
<path d="M7.5 1H4.9C3.53487 1 2.85231 1 2.3309 1.27248C1.87225 1.51217 1.49936 1.89462 1.26567 2.36502C1 2.8998 1 3.59987 1 5V12C1 13.4001 1 14.1002 1.26567 14.635C1.49936 15.1054 1.87225 15.4878 2.3309 15.7275C2.85231 16 3.53487 16 4.9 16H6.6875M7.5 1L12.375 6M7.5 1V3.33333C7.5 4.26675 7.5 4.73346 7.67711 5.08998C7.83291 5.40359 8.0815 5.65855 8.38726 5.81834C8.73487 6 9.18991 6 10.1 6H12.375M12.375 6V7.66667M12.5932 14.5571L14 16M13.1875 13.0833C13.1875 14.2339 12.2781 15.1667 11.1562 15.1667C10.0344 15.1667 9.125 14.2339 9.125 13.0833C9.125 11.9327 10.0344 11 11.1562 11C12.2781 11 13.1875 11.9327 13.1875 13.0833Z" stroke="#161616" stroke-width="1.625" stroke-linecap="round" stroke-linejoin="round"/>
</svg>
