<svg width="15" height="16" viewBox="0 0 15 16" fill="none" xmlns="http://www.w3.org/2000/svg">
<path d="M7.5 4.75V8.8125M7.5 11.25H7.50813M3.6 14.5H11.4C12.3101 14.5 12.7651 14.5 13.1127 14.3229C13.4185 14.1671 13.6671 13.9185 13.8229 13.6127C14 13.2651 14 12.8101 14 11.9V4.1C14 3.18991 14 2.73487 13.8229 2.38727C13.6671 2.0815 13.4185 1.83291 13.1127 1.67711C12.7651 1.5 12.3101 1.5 11.4 1.5H3.6C2.68991 1.5 2.23487 1.5 1.88727 1.67711C1.5815 1.83291 1.33291 2.0815 1.17711 2.38727C1 2.73487 1 3.18991 1 4.1V11.9C1 12.8101 1 13.2651 1.17711 13.6127C1.33291 13.9185 1.5815 14.1671 1.88727 14.3229C2.23487 14.5 2.68991 14.5 3.6 14.5Z" stroke="#DADADA" stroke-width="2" stroke-linecap="round" stroke-linejoin="round"/>
</svg>
