<svg xmlns="http://www.w3.org/2000/svg" fill="none" viewBox="0 0 222 85"><path fill="#242424" d="M7.08 68.78A6.27 6.27 0 0 1 .81 62.5v-5.58c0-1.19.34-2.35.98-3.36L33.24 4.03a6.27 6.27 0 0 1 5.29-2.9h8.34v18.91h-6.98L18.3 54.23v.64h42.43c3.46 0 6.27 2.8 6.27 6.27v1.37c0 3.46-2.81 6.27-6.27 6.27H7.08Zm39.4 14.43a6.27 6.27 0 0 1-6.27-6.27V64.6l.32-6.05V1.12h10c3.47 0 6.28 2.81 6.28 6.27v69.55c0 3.46-2.81 6.27-6.27 6.27h-4.06Zm64.25 1.8c-6.89-.03-12.82-1.72-17.8-5.09-4.93-3.37-8.74-8.24-11.41-14.63-2.65-6.39-3.96-14.07-3.93-23.05 0-8.95 1.32-16.58 3.97-22.88 2.67-6.3 6.48-11.1 11.42-14.39C97.95 1.66 103.87 0 110.73 0c6.87 0 12.78 1.66 17.72 4.97 4.97 3.31 8.8 8.12 11.46 14.43 2.68 6.28 4 13.9 3.97 22.84 0 9-1.34 16.7-4 23.09-2.65 6.39-6.45 11.26-11.39 14.63-4.94 3.37-10.86 5.05-17.76 5.05Zm0-14.39c4.7 0 8.46-2.36 11.27-7.1 2.8-4.72 4.2-11.82 4.17-21.28 0-6.22-.65-11.4-1.93-15.55-1.25-4.14-3.05-7.25-5.37-9.34-2.3-2.08-5-3.12-8.14-3.12-4.67 0-8.41 2.34-11.22 7.01-2.8 4.68-4.22 11.68-4.25 21 0 6.31.63 11.57 1.89 15.8 1.28 4.2 3.08 7.34 5.4 9.45a11.86 11.86 0 0 0 8.18 3.13Zm50.55-1.84a6.27 6.27 0 0 1-6.27-6.27v-5.58c0-1.19.34-2.35.98-3.36l31.44-49.54a6.27 6.27 0 0 1 5.3-2.9h8.34v18.91h-6.98l-21.6 34.19v.64h42.42c3.47 0 6.28 2.8 6.28 6.27v1.37c0 3.46-2.81 6.27-6.28 6.27h-53.63Zm39.4 14.43a6.27 6.27 0 0 1-6.27-6.27V64.6l.32-6.05V1.12h10c3.47 0 6.28 2.81 6.28 6.27v69.55c0 3.46-2.81 6.27-6.28 6.27h-4.05Z"/></svg>