<svg width="26" height="27" viewBox="0 0 26 27" fill="none" xmlns="http://www.w3.org/2000/svg">
<rect y="0.5" width="26" height="26" rx="13" fill="white"/>
<path d="M11.9112 8.50474L18.1335 14.7259C18.3733 14.9657 18.6011 15.4332 18.649 15.7688L18.9847 18.1422C19.1046 19.0053 18.5052 19.6046 17.642 19.4847L15.2682 19.1491C14.9325 19.1012 14.4649 18.8734 14.2251 18.6337L8.00282 12.4125C6.9358 11.3456 6.42027 10.099 8.00282 8.51673C9.58537 6.92247 10.8322 7.42592 11.9112 8.50474V8.50474Z" stroke="#161616" stroke-width="1.5" stroke-miterlimit="10" stroke-linecap="round" stroke-linejoin="round"/>
<path d="M12.8003 9.39062C12.54 10.3198 12.0448 11.1664 11.3624 11.8487C10.6799 12.531 9.83323 13.0261 8.90387 13.2864" stroke="#161616" stroke-width="1.5" stroke-miterlimit="10" stroke-linecap="round" stroke-linejoin="round"/>
</svg>
