<svg width="24" height="24" viewBox="0 0 24 24" fill="none" xmlns="http://www.w3.org/2000/svg">
<g filter="url(#filter0_b_7092_28967)">
<rect width="24" height="24" rx="12" fill="white"/>
<path d="M16.125 8L15.5744 16.0086C15.5262 16.71 15.5021 17.0607 15.3458 17.3267C15.2083 17.5608 15.0008 17.749 14.7508 17.8665C14.4667 18 14.1043 18 13.3793 18H10.6207C9.89575 18 9.53326 18 9.24924 17.8665C8.99918 17.749 8.79171 17.5608 8.65416 17.3267C8.49793 17.0607 8.47381 16.71 8.42559 16.0086L7.875 8M6.5 8H17.5M14.75 8L14.5639 7.45871C14.3836 6.93417 14.2935 6.67189 14.1262 6.47799C13.9786 6.30676 13.7889 6.17421 13.5747 6.09252C13.3321 6 13.047 6 12.4768 6H11.5232C10.953 6 10.6679 6 10.4253 6.09252C10.2111 6.17421 10.0214 6.30676 9.87376 6.47799C9.70654 6.67189 9.61638 6.93417 9.43607 7.45871L9.25 8M13.375 10.6667V15.3333M10.625 10.6667V15.3333" stroke="#161616" stroke-width="1.5" stroke-linecap="round" stroke-linejoin="round"/>
</g>
<defs>
<filter id="filter0_b_7092_28967" x="-2" y="-2" width="28" height="28" filterUnits="userSpaceOnUse" color-interpolation-filters="sRGB">
<feFlood flood-opacity="0" result="BackgroundImageFix"/>
<feGaussianBlur in="BackgroundImageFix" stdDeviation="1"/>
<feComposite in2="SourceAlpha" operator="in" result="effect1_backgroundBlur_7092_28967"/>
<feBlend mode="normal" in="SourceGraphic" in2="effect1_backgroundBlur_7092_28967" result="shape"/>
</filter>
</defs>
</svg>
