<svg width="11" height="16" viewBox="0 0 11 16" fill="none" xmlns="http://www.w3.org/2000/svg">
<path d="M5.53281 16C5.23565 16 4.99476 15.7591 4.99476 15.4619V0.538057C4.99476 0.240897 5.23565 0 5.53281 0V0C5.82997 0 6.07087 0.240896 6.07087 0.538057V15.4619C6.07087 15.7591 5.82997 16 5.53281 16V16ZM9.26857 4.96251C8.75089 4.96251 8.34733 4.54448 8.05421 4.11779C7.91357 3.91308 7.72709 3.73632 7.49475 3.58751C6.98731 3.25834 6.34864 3.09375 5.57874 3.09375C5.02755 3.09375 4.55075 3.17709 4.14829 3.34376C3.74585 3.50626 3.43308 3.73125 3.20997 4.01876C2.99125 4.3021 2.88189 4.62501 2.88189 4.98751C2.88189 5.29167 2.95626 5.55418 3.10499 5.77501C3.25809 5.99585 3.45714 6.18127 3.7021 6.33127C3.95144 6.4771 4.21828 6.60001 4.50263 6.70001C4.78696 6.79585 5.06037 6.87501 5.32284 6.93751L6.63517 7.26251C7.06386 7.36252 7.5035 7.49794 7.95406 7.66877C8.40464 7.8396 8.8224 8.0646 9.20735 8.34377C9.5923 8.62293 9.90289 8.96877 10.1391 9.38127C10.3797 9.79377 10.5 10.2875 10.5 10.8625C10.5 11.5875 10.3031 12.2313 9.90945 12.7938C9.52013 13.3562 8.95363 13.8 8.20998 14.125C7.47069 14.4501 6.57612 14.6125 5.52624 14.6125C4.52012 14.6125 3.64961 14.4605 2.9147 14.1563C2.17979 13.8522 1.60455 13.4208 1.18898 12.8625C0.97886 12.5781 0.81627 12.2671 0.701207 11.9294C0.510512 11.3698 0.99782 10.8625 1.58902 10.8625V10.8625C2.12347 10.8625 2.53389 11.3006 2.81206 11.7569C2.86857 11.8496 2.9334 11.9369 3.00656 12.0187C3.28653 12.323 3.64305 12.55 4.07611 12.7C4.51356 12.8458 4.99257 12.9187 5.51312 12.9187C6.08618 12.9187 6.5958 12.8334 7.04199 12.6625C7.49257 12.4875 7.84689 12.2459 8.10499 11.9375C8.36308 11.625 8.49212 11.2604 8.49212 10.8438C8.49212 10.4646 8.37839 10.1542 8.15092 9.91252C7.92783 9.67085 7.6238 9.47085 7.23885 9.31251C6.85827 9.15419 6.42738 9.01461 5.9462 8.89377L4.35827 8.48126C3.28215 8.2021 2.42913 7.79168 1.79921 7.25002C1.17367 6.70835 0.860893 5.99168 0.860893 5.10001C0.860893 4.3625 1.07087 3.71876 1.49081 3.16876C1.91076 2.61875 2.47944 2.19168 3.19685 1.88751C3.91426 1.57917 4.72353 1.42501 5.62467 1.42501C6.53456 1.42501 7.33727 1.57708 8.03281 1.88125C8.73273 2.18542 9.2839 2.60417 9.68635 3.1375C9.87567 3.38644 10.0224 3.65289 10.1265 3.93687C10.3242 4.47603 9.84284 4.96251 9.26857 4.96251V4.96251Z" fill="#ffffff"/>
</svg>
