<svg width="25" height="24" viewBox="0 0 25 24" fill="none" xmlns="http://www.w3.org/2000/svg">
<rect x="0.5" width="24" height="24" rx="12" fill="white"/>
<path d="M11.502 7.42101L17.2057 13.1238C17.4255 13.3435 17.6343 13.7721 17.6783 14.0797L17.986 16.2554C18.0959 17.0465 17.5464 17.5959 16.7551 17.486L14.5791 17.1783C14.2714 17.1344 13.8428 16.9256 13.623 16.7059L7.91925 11.0031C6.94115 10.0252 6.46858 8.88241 7.91925 7.432C9.36992 5.9706 10.5129 6.43209 11.502 7.42101V7.42101Z" stroke="#161616" stroke-width="1.5" stroke-miterlimit="10" stroke-linecap="round" stroke-linejoin="round"/>
<path d="M12.3164 8.23438C12.0778 9.08614 11.6239 9.86213 10.9983 10.4876C10.3727 11.1131 9.5966 11.5669 8.74468 11.8055" stroke="#161616" stroke-width="1.5" stroke-miterlimit="10" stroke-linecap="round" stroke-linejoin="round"/>
</svg>
