<svg width="24" height="24" viewBox="0 0 24 24" fill="none" xmlns="http://www.w3.org/2000/svg">
<rect x="1" y="1" width="22" height="22" rx="11" stroke="white" stroke-width="2"/>
<path d="M11.002 7.42101L16.7057 13.1238C16.9255 13.3435 17.1343 13.7721 17.1783 14.0797L17.486 16.2554C17.5959 17.0465 17.0464 17.5959 16.2551 17.486L14.0791 17.1783C13.7714 17.1344 13.3428 16.9256 13.123 16.7059L7.41925 11.0031C6.44115 10.0252 5.96858 8.88241 7.41925 7.432C8.86992 5.9706 10.0129 6.43209 11.002 7.42101V7.42101Z" stroke="white" stroke-width="1.5" stroke-miterlimit="10" stroke-linecap="round" stroke-linejoin="round"/>
<path d="M11.8164 8.23389C11.5778 9.08565 11.1239 9.86164 10.4983 10.4871C9.87272 11.1126 9.0966 11.5664 8.24468 11.805" stroke="white" stroke-width="1.5" stroke-miterlimit="10" stroke-linecap="round" stroke-linejoin="round"/>
</svg>
