<svg width="50" height="30" viewBox="0 0 50 30" fill="none" xmlns="http://www.w3.org/2000/svg">
<rect y="23" width="50" height="7" rx="3.5" fill="white"/>
<circle cx="46.5" cy="26.5" r="2.5" fill="#161616"/>
<path d="M8.27052 21.495H2C0.89543 21.495 0 20.5995 0 19.495V2C0 0.895432 0.895431 0 2 0H8.18655C10.3976 0 12.3078 0.430319 13.9172 1.29096C15.5335 2.1446 16.779 3.37608 17.6536 4.9854C18.5352 6.58773 18.976 8.50842 18.976 10.7475C18.976 12.9866 18.5387 14.9108 17.6641 16.5201C16.7894 18.1224 15.551 19.3539 13.9486 20.2145C12.3463 21.0682 10.4536 21.495 8.27052 21.495ZM6 16.5411H8.0606C9.12416 16.5411 10.0303 16.3696 10.779 16.0268C11.5347 15.6839 12.1084 15.0927 12.5003 14.253C12.8991 13.4134 13.0985 12.2449 13.0985 10.7475C13.0985 9.2501 12.8956 8.0816 12.4898 7.24195C12.0909 6.4023 11.5032 5.81105 10.7265 5.4682C9.95678 5.12534 9.0122 4.95391 7.89268 4.95391H6V16.5411Z" fill="white"/>
<path d="M38.7259 20.0715C38.4715 20.9165 37.6933 21.495 36.8108 21.495H34.7663C33.4036 21.495 32.44 20.162 32.8671 18.8681L38.6418 1.37311C38.9123 0.553583 39.678 0 40.541 0H47C48.1046 0 49 0.89543 49 2V19.4949C49 20.5995 48.1046 21.495 47 21.495H45.1673C44.0627 21.495 43.1673 20.5995 43.1673 19.495V5.91951H42.9994L40.8613 13.002H41.5C42.0523 13.002 42.5 13.4497 42.5 14.002V16.5C42.5 17.0523 42.0523 17.5 41.5 17.5H39.5L38.7259 20.0715Z" fill="white"/>
<rect x="20" width="15" height="6" rx="2" fill="white"/>
<rect x="20" y="9" width="12" height="6" rx="2" fill="white"/>
<rect x="26" y="9" width="12" height="6" rx="2" transform="rotate(90 26 9)" fill="white"/>
</svg>
