<svg width="50" height="30" viewBox="0 0 50 30" fill="none" xmlns="http://www.w3.org/2000/svg">
<rect y="23" width="50" height="7" rx="3.5" fill="#161616"/>
<circle cx="46.5" cy="26.5" r="2.5" fill="white"/>
<path d="M8.27052 21.4963H2C0.89543 21.4963 0 20.6009 0 19.4963V2.00134C0 0.896775 0.895431 0.00134277 2 0.00134277H8.18655C10.3976 0.00134277 12.3078 0.431662 13.9172 1.2923C15.5335 2.14594 16.779 3.37742 17.6536 4.98674C18.5352 6.58907 18.976 8.50976 18.976 10.7488C18.976 12.9879 18.5387 14.9121 17.6641 16.5214C16.7894 18.1237 15.551 19.3552 13.9486 20.2158C12.3463 21.0695 10.4536 21.4963 8.27052 21.4963ZM6 16.5424H8.0606C9.12416 16.5424 10.0303 16.371 10.779 16.0281C11.5347 15.6852 12.1084 15.094 12.5003 14.2543C12.8991 13.4147 13.0985 12.2462 13.0985 10.7488C13.0985 9.25144 12.8956 8.08294 12.4898 7.24329C12.0909 6.40364 11.5032 5.81239 10.7265 5.46954C9.95678 5.12668 9.0122 4.95525 7.89268 4.95525H6V16.5424Z" fill="#161616"/>
<path d="M38.7259 20.0715C38.4715 20.9165 37.6933 21.495 36.8108 21.495H34.7663C33.4036 21.495 32.44 20.162 32.8671 18.8681L38.6418 1.37311C38.9123 0.553583 39.678 0 40.541 0H47C48.1046 0 49 0.89543 49 2V19.4949C49 20.5995 48.1046 21.495 47 21.495H45.1673C44.0627 21.495 43.1673 20.5995 43.1673 19.495V5.91951H42.9994L40.8613 13.002H41.5C42.0523 13.002 42.5 13.4497 42.5 14.002V16.5C42.5 17.0523 42.0523 17.5 41.5 17.5H39.5L38.7259 20.0715Z" fill="#161616"/>
<rect x="20" width="15" height="6" rx="2" fill="#161616"/>
<rect x="20" y="9" width="12" height="6" rx="2" fill="#161616"/>
<rect x="26" y="9" width="12" height="6" rx="2" transform="rotate(90 26 9)" fill="#161616"/>
</svg>
