<svg width="21" height="20" viewBox="0 0 21 20" fill="none" xmlns="http://www.w3.org/2000/svg">
<path d="M1.5396 1L19.46 19M8.35361 7.91364C7.83328 8.45355 7.51306 9.18921 7.51306 10C7.51306 11.6569 8.85027 13 10.4998 13C11.3186 13 12.0605 12.669 12.6001 12.133M5.02412 4.64715C3.13321 5.90034 1.69294 7.78394 1 9.99997C2.26862 14.0571 6.04216 17 10.5 17C12.4801 17 14.3252 16.4194 15.8757 15.4184M9.50422 3.04939C9.83173 3.01673 10.1639 3 10.5 3C14.9578 3 18.7314 5.94291 20 10C19.7205 10.894 19.3193 11.7338 18.816 12.5" stroke="white" stroke-width="2" stroke-linecap="round" stroke-linejoin="round"/>
</svg>
