<svg width="83" height="32" viewBox="0 0 83 32" fill="none" xmlns="http://www.w3.org/2000/svg">
<g clip-path="url(#clip0_2728_5558)">
<path d="M22.325 9.43929C21.2675 8.49838 19.9976 7.82784 18.6243 7.48511C17.2509 7.14239 15.8149 7.13769 14.4393 7.47143C14.6821 7.79643 16.2786 9.96786 17.7179 12.6143C20.8429 11.4429 22.1643 9.66429 22.325 9.43929ZM18 17.4571C13.0464 19.1821 11.2643 22.6214 11.1071 22.9429C12.5964 24.1036 14.4679 24.7964 16.5 24.7964C17.7179 24.7964 18.8786 24.55 19.9321 24.1C19.8 23.3286 19.2929 20.6429 18.0571 17.4357L18 17.4571ZM19.7036 17.0321C20.8536 20.1893 21.3214 22.7607 21.4107 23.2964C23.3821 21.9643 24.7857 19.8536 25.175 17.4071C24.875 17.3143 22.4571 16.5929 19.7036 17.0321ZM16.5 0C7.66429 0 0.5 7.16429 0.5 16C0.5 24.8357 7.66429 32 16.5 32C25.3357 32 32.5 24.8357 32.5 16C32.5 7.16429 25.3357 0 16.5 0ZM16.5 26.2857C10.8286 26.2857 6.21429 21.6714 6.21429 16C6.21429 10.3286 10.8286 5.71429 16.5 5.71429C22.1714 5.71429 26.7857 10.3286 26.7857 16C26.7857 21.6714 22.1714 26.2857 16.5 26.2857ZM18.3964 13.9214C18.6 14.3393 18.7964 14.7643 18.9786 15.1929C19.0429 15.3429 19.1071 15.4929 19.1679 15.6464C22.0893 15.2786 24.9964 15.8679 25.2857 15.9286C25.2679 13.8536 24.525 11.95 23.3036 10.4536C23.1143 10.7071 21.6429 12.5964 18.3964 13.9214ZM16.0214 13.1429C14.5643 10.5536 12.9964 8.37857 12.7643 8.06071C10.3071 9.22143 8.46786 11.4857 7.9 14.2107C8.29286 14.2179 11.9143 14.2357 16.0214 13.1429ZM17.1143 16.0893C17.2286 16.0536 17.3429 16.0179 17.4607 15.9857C17.2393 15.4857 17 14.9857 16.75 14.4964C12.3643 15.8107 8.10357 15.7536 7.72143 15.7464C7.71786 15.8357 7.71786 15.925 7.71786 16.0143C7.71786 18.2714 8.57143 20.3321 9.975 21.8893C10.1714 21.5464 12.5821 17.5536 17.1143 16.0893Z" fill="#EA4C87"/>
</g>
<rect x="50.5" width="32" height="32" rx="16" fill="white"/>
<path d="M66.5 8.5V16M66.5 16V23.5M66.5 16H74M66.5 16H59" stroke="black" stroke-width="2" stroke-linecap="round"/>
<defs>
<clipPath id="clip0_2728_5558">
<rect width="32" height="32" fill="white" transform="translate(0.5)"/>
</clipPath>
</defs>
</svg>
