<svg width="24" height="24" viewBox="0 0 24 24" fill="none" xmlns="http://www.w3.org/2000/svg">
<rect width="24" height="24" rx="12" fill="white"/>
<path d="M14.0332 15.3129C14.1307 15.5806 14.4477 16.0451 14.9937 16.481M14.9937 16.481C15.57 16.9411 16.4016 17.3692 17.5 17.5M14.9937 16.481C15.8176 15.8192 16.3831 14.9838 16.3831 14.4444M14.9937 16.481C14.3171 17.0244 13.4662 17.4508 12.6111 17.5M17.5 13.8333H12.6111M15.0556 12.6111V13.8333M8.36057 13.8333C8.22628 14.5352 8.52172 15.8788 10.7778 15.6382M12 8.35376C12.9359 8.25304 14.7273 8.47462 14.4065 10.1667M6.5 11.3889L7.72222 7.04321C7.72222 7.04321 7.875 6.5 8.33333 6.5C8.79167 6.5 8.94444 7.04321 8.94444 7.04321M10.1667 11.3889L8.94444 7.11111M7.11111 9.55556H9.55556" stroke="#161616" stroke-width="1.26923" stroke-linecap="round" stroke-linejoin="round"/>
</svg>
