<svg width="46" height="46" viewBox="0 0 46 46" fill="none" xmlns="http://www.w3.org/2000/svg">
<g filter="url(#filter0_d_1074_5822)">
<rect x="10" y="10" width="26" height="26" rx="13" fill="white" shape-rendering="crispEdges"/>
<path d="M26.8824 21.2353V17M29 19.1176H24.7647M21.9412 17.7059H20.3882C19.2022 17.7059 18.6092 17.7059 18.1563 17.9367C17.7578 18.1397 17.4338 18.4637 17.2308 18.8621C17 19.3151 17 19.9081 17 21.0941V25.6118C17 26.7978 17 27.3908 17.2308 27.8437C17.4338 28.2422 17.7578 28.5662 18.1563 28.7692C18.6092 29 19.2022 29 20.3882 29H24.9059C26.0919 29 26.6849 29 27.1379 28.7692C27.5363 28.5662 27.8603 28.2422 28.0633 27.8437C28.2941 27.3908 28.2941 26.7978 28.2941 25.6118V24.0588M24.2457 26.1324L23.0682 24.9647C22.5001 24.4013 22.216 24.1196 21.8899 24.0166C21.6032 23.926 21.295 23.9293 21.0103 24.0261C20.6866 24.1361 20.4087 24.4239 19.8528 24.9995L17.1838 27.7419M24.2457 26.1324L24.4867 25.8934C25.0555 25.3292 25.34 25.0472 25.6663 24.9442C25.9533 24.8537 26.2618 24.8572 26.5466 24.9543C26.8705 25.0648 27.1484 25.3533 27.7042 25.9304L28.2879 26.5294M24.2457 26.1324L26.8824 28.8711" stroke="#161616" stroke-width="1.41176" stroke-linecap="round" stroke-linejoin="round"/>
</g>
<defs>
<filter id="filter0_d_1074_5822" x="0" y="0" width="46" height="46" filterUnits="userSpaceOnUse" color-interpolation-filters="sRGB">
<feFlood flood-opacity="0" result="BackgroundImageFix"/>
<feColorMatrix in="SourceAlpha" type="matrix" values="0 0 0 0 0 0 0 0 0 0 0 0 0 0 0 0 0 0 127 0" result="hardAlpha"/>
<feOffset/>
<feGaussianBlur stdDeviation="5"/>
<feComposite in2="hardAlpha" operator="out"/>
<feColorMatrix type="matrix" values="0 0 0 0 0 0 0 0 0 0 0 0 0 0 0 0 0 0 0.25 0"/>
<feBlend mode="normal" in2="BackgroundImageFix" result="effect1_dropShadow_1074_5822"/>
<feBlend mode="normal" in="SourceGraphic" in2="effect1_dropShadow_1074_5822" result="shape"/>
</filter>
</defs>
</svg>
