<svg width="14" height="14" viewBox="0 0 14 14" fill="none" xmlns="http://www.w3.org/2000/svg">
<path d="M5.7012 2.16492H4.61615C3.5254 2.16492 2.98002 2.16492 2.56341 2.37613C2.19694 2.56192 1.899 2.85837 1.71228 3.22299C1.5 3.63752 1.5 4.18016 1.5 5.26544V9.39948C1.5 10.4848 1.5 11.0274 1.71228 11.4419C1.899 11.8066 2.19694 12.103 2.56341 12.2888C2.98002 12.5 3.5254 12.5 4.61615 12.5H8.77103C9.86178 12.5 10.4072 12.5 10.8238 12.2888C11.1902 12.103 11.4882 11.8066 11.6749 11.4419C11.8872 11.0274 11.8872 10.4848 11.8872 9.39948V8.06705M8.16383 9.87586L7.04894 8.77581C6.5365 8.27018 6.28028 8.01737 5.98529 7.92254C5.72579 7.83913 5.44648 7.83913 5.18697 7.92254C4.89199 8.01737 4.63577 8.27018 4.12332 8.7758L1.61853 11.2081M8.16383 9.87586L8.38546 9.65718C8.90866 9.14095 9.17025 8.88283 9.47041 8.78862C9.73437 8.70576 10.018 8.70901 10.28 8.79788C10.5779 8.89894 10.8335 9.16297 11.3446 9.69104L11.8815 10.2392M8.16383 9.87586L10.6555 12.3604M8.17201 1.5L10.336 3.65296M10.336 3.65296L12.5 5.80591M10.336 3.65296L12.5 1.5M10.336 3.65296L8.17201 5.80591" stroke="#161616" stroke-width="1.26275" stroke-linecap="round" stroke-linejoin="round"/>
</svg>
