<svg width="14" height="14" viewBox="0 0 14 14" fill="none" xmlns="http://www.w3.org/2000/svg">
<path d="M6.13399 2.14927H4.61615C3.5254 2.14927 2.98002 2.14927 2.56341 2.3608C2.19694 2.54687 1.899 2.84377 1.71228 3.20895C1.5 3.6241 1.5 4.16756 1.5 5.25449V9.39478C1.5 10.4817 1.5 11.0252 1.71228 11.4403C1.899 11.8055 2.19694 12.1024 2.56341 12.2885C2.98002 12.5 3.5254 12.5 4.61615 12.5H8.77103C9.86178 12.5 10.4072 12.5 10.8238 12.2885C11.1902 12.1024 11.4882 11.8055 11.6749 11.4403C11.8872 11.0252 11.8872 10.4817 11.8872 9.39478V7.88346M8.16383 9.87189L7.04894 8.77016C6.5365 8.26377 6.28028 8.01058 5.98529 7.91561C5.72579 7.83207 5.44648 7.83207 5.18697 7.91561C4.89199 8.01058 4.63577 8.26377 4.12332 8.77016L1.61853 11.2062M8.16383 9.87189L8.38546 9.65288C8.90866 9.13586 9.17025 8.87735 9.47041 8.783C9.73437 8.70002 10.018 8.70327 10.28 8.79227C10.5779 8.89348 10.8335 9.15792 11.3446 9.68679L11.8815 10.2358M8.16383 9.87189L10.6555 12.3601M12.5 2.81769C12.1482 2.10121 11.1904 1.5 10.336 1.5C9.14086 1.5 8.17201 2.46537 8.17201 3.65622C8.17201 4.84706 9.14086 5.81243 10.336 5.81243C11.165 5.81243 11.8924 5.34794 12.2596 4.66591M12.5 2.81769V1.73958M12.5 2.81769H11.418" stroke="#161616" stroke-width="1.26924" stroke-linecap="round" stroke-linejoin="round"/>
</svg>
