<svg width="78" height="79" viewBox="0 0 78 79" fill="none" xmlns="http://www.w3.org/2000/svg">
<path d="M26.6667 64.3667V76.7M51.3333 64.3667V76.7M18.4444 76.7H59.5556M2 39.7H76M39 52.0333H39.0411M21.7333 64.3667H56.2667C63.174 64.3667 66.6276 64.3667 69.2659 63.0224C71.5865 61.84 73.4733 59.9532 74.6557 57.6326C76 54.9943 76 51.5407 76 44.6333V22.4333C76 15.526 76 12.0724 74.6557 9.43413C73.4733 7.11346 71.5865 5.2267 69.2659 4.04427C66.6276 2.70001 63.174 2.70001 56.2667 2.70001H21.7333C14.826 2.70001 11.3724 2.70001 8.73412 4.04427C6.41345 5.2267 4.52669 7.11346 3.34425 9.43413C2 12.0724 2 15.526 2 22.4333V44.6333C2 51.5407 2 54.9943 3.34425 57.6326C4.52669 59.9532 6.41345 61.84 8.73412 63.0224C11.3724 64.3667 14.826 64.3667 21.7333 64.3667Z" stroke="#161616" stroke-width="3.62782" stroke-linecap="round" stroke-linejoin="round"/>
</svg>
